<svg width="36" height="36" viewBox="0 0 36 36" fill="none" xmlns="http://www.w3.org/2000/svg">
<rect width="36" height="36" rx="6" fill="#5468FE"/>
<path d="M28.0015 26.4259L23.1555 21.5814C24.4584 19.8789 25.0654 17.7448 24.8532 15.6115C24.6411 13.4782 23.6258 11.5053 22.0131 10.0928C20.4004 8.6803 18.311 7.9338 16.1683 8.00461C14.0257 8.07543 11.9901 8.95826 10.4742 10.4742C8.95825 11.9901 8.07543 14.0257 8.00461 16.1683C7.9338 18.311 8.6803 20.4004 10.0928 22.0131C11.5053 23.6258 13.4782 24.6411 15.6115 24.8532C17.7448 25.0654 19.8789 24.4585 21.5814 23.1555L26.4273 28L28.0015 26.4259ZM16.4456 22.67C15.0059 22.6697 13.6109 22.1703 12.4982 21.2568C11.3855 20.3433 10.6239 19.0722 10.3433 17.6602C10.0626 16.2481 10.2803 14.7825 10.9591 13.5129C11.6379 12.2433 12.7359 11.2484 14.066 10.6976C15.3961 10.1468 16.876 10.0742 18.2537 10.4922C19.6313 10.9102 20.8214 11.7929 21.6212 12.9899C22.421 14.187 22.781 15.6243 22.6399 17.0571C22.4987 18.4898 21.8652 19.8293 20.8473 20.8473C20.2707 21.4273 19.5847 21.887 18.8292 22.1999C18.0736 22.5128 17.2634 22.6726 16.4456 22.67Z" fill="white"/>
</svg>
